<svg xmlns="http://www.w3.org/2000/svg" xmlns:xlink="http://www.w3.org/1999/xlink" width="618.821533203125" height="496.54150390625" viewBox="0 0 618.821533203125 496.54150390625" fill="none"><path    stroke="rgba(26, 26, 26, 1)" stroke-width="0.86775803565979" stroke-linejoin="round" stroke-linecap="round"  d="M402.728 121.204L513.387 121.204L513.387 93.9208"></path><path d="M386.01 0.216686L111.503 0.216686C98.8733 0.216686 88.4809 9.70543 87.0178 21.9483L410.474 21.9483C409.033 9.70543 398.64 0.216686 386.01 0.216686Z" stroke="rgba(26, 26, 26, 1)" stroke-width="0.43377143144607544" stroke-linejoin="round" stroke-linecap="round"    fill="#1C0311" ></path><path d="M121.035 11.0825C121.035 12.6867 119.735 13.9872 118.131 13.9872C116.526 13.9872 115.226 12.6867 115.226 11.0825C115.226 9.47823 116.526 8.17774 118.131 8.17774C119.735 8.17774 121.035 9.47823 121.035 11.0825Z" stroke="rgba(26, 26, 26, 1)" stroke-width="0.86775803565979" stroke-linejoin="round" stroke-linecap="round"    fill="#FFFFFF" ></path><path d="M138.657 11.0825C138.657 12.6867 137.357 13.9872 135.752 13.9872C134.148 13.9872 132.848 12.6867 132.848 11.0825C132.848 9.47823 134.148 8.17774 135.752 8.17774C137.357 8.17774 138.657 9.47823 138.657 11.0825Z" stroke="rgba(26, 26, 26, 1)" stroke-width="0.86775803565979" stroke-linejoin="round" stroke-linecap="round"    fill="#FFFFFF" ></path><path d="M156.279 11.0825C156.279 12.6867 154.979 13.9872 153.374 13.9872C151.77 13.9872 150.47 12.6867 150.47 11.0825C150.47 9.47823 151.77 8.17774 153.374 8.17774C154.979 8.17774 156.279 9.47823 156.279 11.0825Z" stroke="rgba(26, 26, 26, 1)" stroke-width="0.86775803565979" stroke-linejoin="round" stroke-linecap="round"    fill="#FFFFFF" ></path><path d="M87.0178 21.9482C86.9102 22.9165 86.8456 23.8847 86.8456 24.8745L86.8456 186.377C86.8456 199.997 97.8836 211.035 111.503 211.035L386.01 211.035C399.63 211.035 410.668 199.997 410.668 186.377L410.668 24.896C410.668 23.9062 410.603 22.9165 410.496 21.9698L87.0178 21.9698L87.0178 21.9482Z" stroke="rgba(26, 26, 26, 1)" stroke-width="0.86775803565979" stroke-linejoin="round" stroke-linecap="round"    fill="#FFFFFF" ></path><path    stroke="rgba(26, 26, 26, 1)" stroke-width="0.86775803565979" stroke-linejoin="round" stroke-linecap="round"  d="M234.836 121.139L234.836 123.743L232.232 123.743"></path><path   fill="rgba(26, 26, 26, 1)"  d="M110.557 123.309L113.199 123.309L113.199 124.176L110.557 124.176L110.557 123.309ZM118.484 123.309L123.769 123.309L123.769 124.176L118.484 124.176L118.484 123.309ZM129.054 123.309L134.339 123.309L134.339 124.176L129.054 124.176L129.054 123.309ZM139.624 123.309L144.909 123.309L144.909 124.176L139.624 124.176L139.624 123.309ZM150.194 123.309L155.479 123.309L155.479 124.176L150.194 124.176L150.194 123.309ZM160.764 123.309L166.049 123.309L166.049 124.176L160.764 124.176L160.764 123.309ZM171.334 123.309L176.619 123.309L176.619 124.176L171.334 124.176L171.334 123.309ZM181.904 123.309L187.189 123.309L187.189 124.176L181.904 124.176L181.904 123.309ZM192.474 123.309L197.759 123.309L197.759 124.176L192.474 124.176L192.474 123.309ZM203.044 123.309L208.329 123.309L208.329 124.176L203.044 124.176L203.044 123.309ZM213.614 123.309L218.899 123.309L218.899 124.176L213.614 124.176L213.614 123.309ZM224.184 123.309L226.827 123.309L226.827 124.176L224.184 124.176L224.184 123.309ZM110.557 124.176C110.317 124.176 110.123 123.982 110.123 123.743C110.123 123.503 110.317 123.309 110.557 123.309C110.796 123.309 110.991 123.503 110.991 123.743C110.991 123.982 110.796 124.176 110.557 124.176ZM226.827 124.176C226.587 124.176 226.393 123.982 226.393 123.743C226.393 123.503 226.587 123.309 226.827 123.309C227.066 123.309 227.261 123.503 227.261 123.743C227.261 123.982 227.066 124.176 226.827 124.176Z"></path><path    stroke="rgba(26, 26, 26, 1)" stroke-width="0.86775803565979" stroke-linejoin="round" stroke-linecap="round"  d="M107.846 123.743L105.242 123.743L105.242 121.139"></path><path   fill="rgba(26, 26, 26, 1)"  d="M104.808 116.169L104.808 113.763L105.676 113.763L105.676 116.169L104.808 116.169ZM104.808 108.951L104.808 104.14L105.676 104.14L105.676 108.951L104.808 108.951ZM104.808 99.3281L104.808 94.5165L105.676 94.5165L105.676 99.3281L104.808 99.3281ZM104.808 89.7049L104.808 84.8933L105.676 84.8933L105.676 89.7049L104.808 89.7049ZM104.808 80.0817L104.808 75.2701L105.676 75.2701L105.676 80.0817L104.808 80.0817ZM104.808 70.4585L104.808 65.6468L105.676 65.6468L105.676 70.4585L104.808 70.4585ZM104.808 60.8352L104.808 56.0236L105.676 56.0236L105.676 60.8352L104.808 60.8352ZM104.808 51.212L104.808 46.4004L105.676 46.4004L105.676 51.212L104.808 51.212ZM104.808 41.5888L104.808 39.183L105.676 39.183L105.676 41.5888L104.808 41.5888ZM105.242 116.603C105.003 116.603 104.808 116.408 104.808 116.169C104.808 115.929 105.003 115.735 105.242 115.735C105.482 115.735 105.676 115.929 105.676 116.169C105.676 116.408 105.482 116.603 105.242 116.603ZM105.242 39.6169C105.003 39.6169 104.808 39.4226 104.808 39.183C104.808 38.9434 105.003 38.7491 105.242 38.7491C105.482 38.7491 105.676 38.9434 105.676 39.183C105.676 39.4226 105.482 39.6169 105.242 39.6169Z"></path><path    stroke="rgba(26, 26, 26, 1)" stroke-width="0.86775803565979" stroke-linejoin="round" stroke-linecap="round"  d="M105.242 36.6871L105.242 34.0836L107.846 34.0836"></path><path   fill="rgba(26, 26, 26, 1)"  d="M113.268 33.6497L115.91 33.6497L115.91 34.5174L113.268 34.5174L113.268 33.6497ZM121.195 33.6497L126.48 33.6497L126.48 34.5174L121.195 34.5174L121.195 33.6497ZM131.765 33.6497L137.05 33.6497L137.05 34.5174L131.765 34.5174L131.765 33.6497ZM142.335 33.6497L147.62 33.6497L147.62 34.5174L142.335 34.5174L142.335 33.6497ZM152.905 33.6497L158.19 33.6497L158.19 34.5174L152.905 34.5174L152.905 33.6497ZM163.475 33.6497L168.76 33.6497L168.76 34.5174L163.475 34.5174L163.475 33.6497ZM174.045 33.6497L179.33 33.6497L179.33 34.5174L174.045 34.5174L174.045 33.6497ZM184.615 33.6497L189.9 33.6497L189.9 34.5174L184.615 34.5174L184.615 33.6497ZM195.185 33.6497L200.47 33.6497L200.47 34.5174L195.185 34.5174L195.185 33.6497ZM205.755 33.6497L211.04 33.6497L211.04 34.5174L205.755 34.5174L205.755 33.6497ZM216.325 33.6497L221.61 33.6497L221.61 34.5174L216.325 34.5174L216.325 33.6497ZM226.895 33.6497L229.538 33.6497L229.538 34.5174L226.895 34.5174L226.895 33.6497ZM113.268 34.5174C113.028 34.5174 112.834 34.3232 112.834 34.0836C112.834 33.8439 113.028 33.6497 113.268 33.6497C113.507 33.6497 113.702 33.8439 113.702 34.0836C113.702 34.3232 113.507 34.5174 113.268 34.5174ZM229.538 34.5174C229.298 34.5174 229.104 34.3232 229.104 34.0836C229.104 33.8439 229.298 33.6497 229.538 33.6497C229.777 33.6497 229.972 33.8439 229.972 34.0836C229.972 34.3232 229.777 34.5174 229.538 34.5174Z"></path><path    stroke="rgba(26, 26, 26, 1)" stroke-width="0.86775803565979" stroke-linejoin="round" stroke-linecap="round"  d="M232.232 34.0836L234.836 34.0836L234.836 36.687"></path><path   fill="rgba(26, 26, 26, 1)"  d="M235.27 41.6573L235.27 44.0638L234.402 44.0638L234.402 41.6573L235.27 41.6573ZM235.27 48.8768L235.27 53.6897L234.402 53.6897L234.402 48.8768L235.27 48.8768ZM235.27 58.5027L235.27 63.3157L234.402 63.3157L234.402 58.5027L235.27 58.5027ZM235.27 68.1286L235.27 72.9416L234.402 72.9416L234.402 68.1286L235.27 68.1286ZM235.27 77.7545L235.27 82.5675L234.402 82.5675L234.402 77.7545L235.27 77.7545ZM235.27 87.3804L235.27 92.1934L234.402 92.1934L234.402 87.3804L235.27 87.3804ZM235.27 97.0064L235.27 101.819L234.402 101.819L234.402 97.0064L235.27 97.0064ZM235.27 106.632L235.27 111.445L234.402 111.445L234.402 106.632L235.27 106.632ZM235.27 116.258L235.27 118.665L234.402 118.665L234.402 116.258L235.27 116.258ZM234.836 42.0912C234.596 42.0912 234.402 41.897 234.402 41.6573C234.402 41.4177 234.596 41.2235 234.836 41.2235C235.075 41.2235 235.27 41.4177 235.27 41.6573C235.27 41.897 235.075 42.0912 234.836 42.0912ZM234.836 119.099C234.596 119.099 234.402 118.904 234.402 118.665C234.402 118.425 234.596 118.231 234.836 118.231C235.075 118.231 235.27 118.425 235.27 118.665C235.27 118.904 235.075 119.099 234.836 119.099Z"></path><path    stroke="rgba(26, 26, 26, 1)" stroke-width="0.86775803565979" stroke-linejoin="round" stroke-linecap="round"  d="M345.215 121.139L345.215 123.743L342.633 123.743"></path><path   fill="rgba(26, 26, 26, 1)"  d="M250.435 123.309L252.858 123.309L252.858 124.176L250.435 124.176L250.435 123.309ZM257.703 123.309L262.548 123.309L262.548 124.176L257.703 124.176L257.703 123.309ZM267.393 123.309L272.238 123.309L272.238 124.176L267.393 124.176L267.393 123.309ZM277.083 123.309L281.928 123.309L281.928 124.176L277.083 124.176L277.083 123.309ZM286.773 123.309L291.618 123.309L291.618 124.176L286.773 124.176L286.773 123.309ZM296.463 123.309L301.308 123.309L301.308 124.176L296.463 124.176L296.463 123.309ZM306.153 123.309L310.998 123.309L310.998 124.176L306.153 124.176L306.153 123.309ZM315.843 123.309L320.688 123.309L320.688 124.176L315.843 124.176L315.843 123.309ZM325.533 123.309L330.378 123.309L330.378 124.176L325.533 124.176L325.533 123.309ZM335.223 123.309L337.645 123.309L337.645 124.176L335.223 124.176L335.223 123.309ZM250.435 124.176C250.195 124.176 250.001 123.982 250.001 123.743C250.001 123.503 250.195 123.309 250.435 123.309C250.675 123.309 250.869 123.503 250.869 123.743C250.869 123.982 250.675 124.176 250.435 124.176ZM337.645 124.176C337.405 124.176 337.211 123.982 337.211 123.743C337.211 123.503 337.405 123.309 337.645 123.309C337.885 123.309 338.079 123.503 338.079 123.743C338.079 123.982 337.885 124.176 337.645 124.176Z"></path><path    stroke="rgba(26, 26, 26, 1)" stroke-width="0.86775803565979" stroke-linejoin="round" stroke-linecap="round"  d="M247.961 123.743L245.357 123.743L245.357 121.139"></path><path   fill="rgba(26, 26, 26, 1)"  d="M244.923 116.169L244.923 113.763L245.791 113.763L245.791 116.169L244.923 116.169ZM244.923 108.951L244.923 104.14L245.791 104.14L245.791 108.951L244.923 108.951ZM244.923 99.3281L244.923 94.5165L245.791 94.5165L245.791 99.3281L244.923 99.3281ZM244.923 89.7049L244.923 84.8933L245.791 84.8933L245.791 89.7049L244.923 89.7049ZM244.923 80.0817L244.923 75.2701L245.791 75.2701L245.791 80.0817L244.923 80.0817ZM244.923 70.4585L244.923 65.6468L245.791 65.6468L245.791 70.4585L244.923 70.4585ZM244.923 60.8352L244.923 56.0236L245.791 56.0236L245.791 60.8352L244.923 60.8352ZM244.923 51.212L244.923 46.4004L245.791 46.4004L245.791 51.212L244.923 51.212ZM244.923 41.5888L244.923 39.183L245.791 39.183L245.791 41.5888L244.923 41.5888ZM245.357 116.603C245.118 116.603 244.923 116.408 244.923 116.169C244.923 115.929 245.118 115.735 245.357 115.735C245.597 115.735 245.791 115.929 245.791 116.169C245.791 116.408 245.597 116.603 245.357 116.603ZM245.357 39.6169C245.118 39.6169 244.923 39.4226 244.923 39.183C244.923 38.9434 245.118 38.7491 245.357 38.7491C245.597 38.7491 245.791 38.9434 245.791 39.183C245.791 39.4226 245.597 39.6169 245.357 39.6169Z"></path><path    stroke="rgba(26, 26, 26, 1)" stroke-width="0.86775803565979" stroke-linejoin="round" stroke-linecap="round"  d="M245.357 36.6871L245.357 34.0836L247.961 34.0836"></path><path   fill="rgba(26, 26, 26, 1)"  d="M252.931 33.6497L255.354 33.6497L255.354 34.5174L252.931 34.5174L252.931 33.6497ZM260.199 33.6497L265.044 33.6497L265.044 34.5174L260.199 34.5174L260.199 33.6497ZM269.889 33.6497L274.734 33.6497L274.734 34.5174L269.889 34.5174L269.889 33.6497ZM279.579 33.6497L284.424 33.6497L284.424 34.5174L279.579 34.5174L279.579 33.6497ZM289.269 33.6497L294.114 33.6497L294.114 34.5174L289.269 34.5174L289.269 33.6497ZM298.959 33.6497L303.804 33.6497L303.804 34.5174L298.959 34.5174L298.959 33.6497ZM308.649 33.6497L313.494 33.6497L313.494 34.5174L308.649 34.5174L308.649 33.6497ZM318.339 33.6497L323.184 33.6497L323.184 34.5174L318.339 34.5174L318.339 33.6497ZM328.029 33.6497L332.874 33.6497L332.874 34.5174L328.029 34.5174L328.029 33.6497ZM337.719 33.6497L340.141 33.6497L340.141 34.5174L337.719 34.5174L337.719 33.6497ZM252.931 34.5174C252.691 34.5174 252.497 34.3232 252.497 34.0836C252.497 33.8439 252.691 33.6497 252.931 33.6497C253.171 33.6497 253.365 33.8439 253.365 34.0836C253.365 34.3232 253.171 34.5174 252.931 34.5174ZM340.141 34.5174C339.901 34.5174 339.707 34.3232 339.707 34.0836C339.707 33.8439 339.901 33.6497 340.141 33.6497C340.381 33.6497 340.575 33.8439 340.575 34.0836C340.575 34.3232 340.381 34.5174 340.141 34.5174Z"></path><path    stroke="rgba(26, 26, 26, 1)" stroke-width="0.86775803565979" stroke-linejoin="round" stroke-linecap="round"  d="M342.633 34.0836L345.215 34.0836L345.215 36.687"></path><path   fill="rgba(26, 26, 26, 1)"  d="M345.649 41.6573L345.649 44.0638L344.781 44.0638L344.781 41.6573L345.649 41.6573ZM345.649 48.8768L345.649 53.6897L344.781 53.6897L344.781 48.8768L345.649 48.8768ZM345.649 58.5027L345.649 63.3157L344.781 63.3157L344.781 58.5027L345.649 58.5027ZM345.649 68.1286L345.649 72.9416L344.781 72.9416L344.781 68.1286L345.649 68.1286ZM345.649 77.7545L345.649 82.5675L344.781 82.5675L344.781 77.7545L345.649 77.7545ZM345.649 87.3804L345.649 92.1934L344.781 92.1934L344.781 87.3804L345.649 87.3804ZM345.649 97.0064L345.649 101.819L344.781 101.819L344.781 97.0064L345.649 97.0064ZM345.649 106.632L345.649 111.445L344.781 111.445L344.781 106.632L345.649 106.632ZM345.649 116.258L345.649 118.665L344.781 118.665L344.781 116.258L345.649 116.258ZM345.215 42.0912C344.975 42.0912 344.781 41.897 344.781 41.6573C344.781 41.4177 344.975 41.2235 345.215 41.2235C345.455 41.2235 345.649 41.4177 345.649 41.6573C345.649 41.897 345.455 42.0912 345.215 42.0912ZM345.215 119.099C344.975 119.099 344.781 118.904 344.781 118.665C344.781 118.425 344.975 118.231 345.215 118.231C345.455 118.231 345.649 118.425 345.649 118.665C345.649 118.904 345.455 119.099 345.215 119.099Z"></path><path    stroke="rgba(26, 26, 26, 1)" stroke-width="0.86775803565979" stroke-linejoin="round" stroke-linecap="round"  d="M395.155 194.252L395.155 196.855L392.551 196.855"></path><path   fill="rgba(26, 26, 26, 1)"  d="M362.364 196.422L364.494 196.422L364.494 197.289L362.364 197.289L362.364 196.422ZM368.754 196.422L373.014 196.422L373.014 197.289L368.754 197.289L368.754 196.422ZM377.274 196.422L381.534 196.422L381.534 197.289L377.274 197.289L377.274 196.422ZM385.794 196.422L387.924 196.422L387.924 197.289L385.794 197.289L385.794 196.422ZM362.364 197.289C362.124 197.289 361.93 197.095 361.93 196.855C361.93 196.616 362.124 196.422 362.364 196.422C362.603 196.422 362.797 196.616 362.797 196.855C362.797 197.095 362.603 197.289 362.364 197.289ZM387.924 197.289C387.684 197.289 387.49 197.095 387.49 196.855C387.49 196.616 387.684 196.422 387.924 196.422C388.163 196.422 388.357 196.616 388.357 196.855C388.357 197.095 388.163 197.289 387.924 197.289Z"></path><path    stroke="rgba(26, 26, 26, 1)" stroke-width="0.86775803565979" stroke-linejoin="round" stroke-linecap="round"  d="M360.04 196.855L357.436 196.855L357.436 194.252"></path><path   fill="rgba(26, 26, 26, 1)"  d="M357.002 189.174L357.002 186.675L357.87 186.675L357.87 189.174L357.002 189.174ZM357.002 181.677L357.002 176.678L357.87 176.678L357.87 181.677L357.002 181.677ZM357.002 171.68L357.002 166.682L357.87 166.682L357.87 171.68L357.002 171.68ZM357.002 161.684L357.002 156.685L357.87 156.685L357.87 161.684L357.002 161.684ZM357.002 151.687L357.002 146.689L357.87 146.689L357.87 151.687L357.002 151.687ZM357.002 141.69L357.002 136.692L357.87 136.692L357.87 141.69L357.002 141.69ZM357.002 131.694L357.002 126.696L357.87 126.696L357.87 131.694L357.002 131.694ZM357.002 121.697L357.002 116.699L357.87 116.699L357.87 121.697L357.002 121.697ZM357.002 111.701L357.002 106.703L357.87 106.703L357.87 111.701L357.002 111.701ZM357.002 101.704L357.002 96.7061L357.87 96.7061L357.87 101.704L357.002 101.704ZM357.002 91.7078L357.002 86.7095L357.87 86.7095L357.87 91.7078L357.002 91.7078ZM357.002 81.7113L357.002 76.713L357.87 76.713L357.87 81.7113L357.002 81.7113ZM357.002 71.7147L357.002 66.7165L357.87 66.7165L357.87 71.7147L357.002 71.7147ZM357.002 61.7182L357.002 56.7199L357.87 56.7199L357.87 61.7182L357.002 61.7182ZM357.002 51.7217L357.002 46.7234L357.87 46.7234L357.87 51.7217L357.002 51.7217ZM357.002 41.7251L357.002 39.226L357.87 39.226L357.87 41.7251L357.002 41.7251ZM357.436 189.608C357.197 189.608 357.002 189.414 357.002 189.174C357.002 188.934 357.197 188.74 357.436 188.74C357.676 188.74 357.87 188.934 357.87 189.174C357.87 189.414 357.676 189.608 357.436 189.608ZM357.436 39.6599C357.197 39.6599 357.002 39.4656 357.002 39.226C357.002 38.9864 357.197 38.7921 357.436 38.7921C357.676 38.7921 357.87 38.9864 357.87 39.226C357.87 39.4656 357.676 39.6599 357.436 39.6599Z"></path><path    stroke="rgba(26, 26, 26, 1)" stroke-width="0.86775803565979" stroke-linejoin="round" stroke-linecap="round"  d="M357.436 36.6871L357.436 34.0836L360.04 34.0836"></path><path   fill="rgba(26, 26, 26, 1)"  d="M364.687 33.6497L366.816 33.6497L366.816 34.5174L364.687 34.5174L364.687 33.6497ZM371.072 33.6497L375.329 33.6497L375.329 34.5174L371.072 34.5174L371.072 33.6497ZM379.586 33.6497L383.842 33.6497L383.842 34.5174L379.586 34.5174L379.586 33.6497ZM388.099 33.6497L390.227 33.6497L390.227 34.5174L388.099 34.5174L388.099 33.6497ZM364.687 34.5174C364.448 34.5174 364.254 34.3232 364.254 34.0836C364.254 33.8439 364.448 33.6497 364.687 33.6497C364.927 33.6497 365.121 33.8439 365.121 34.0836C365.121 34.3232 364.927 34.5174 364.687 34.5174ZM390.227 34.5174C389.988 34.5174 389.794 34.3232 389.794 34.0836C389.794 33.8439 389.988 33.6497 390.227 33.6497C390.467 33.6497 390.661 33.8439 390.661 34.0836C390.661 34.3232 390.467 34.5174 390.227 34.5174Z"></path><path    stroke="rgba(26, 26, 26, 1)" stroke-width="0.86775803565979" stroke-linejoin="round" stroke-linecap="round"  d="M392.551 34.0836L395.155 34.0836L395.155 36.687"></path><path   fill="rgba(26, 26, 26, 1)"  d="M395.589 41.7649L395.589 44.2641L394.721 44.2641L394.721 41.7649L395.589 41.7649ZM395.589 49.2623L395.589 54.2606L394.721 54.2606L394.721 49.2623L395.589 49.2623ZM395.589 59.2589L395.589 64.2571L394.721 64.2571L394.721 59.2589L395.589 59.2589ZM395.589 69.2554L395.589 74.2537L394.721 74.2537L394.721 69.2554L395.589 69.2554ZM395.589 79.252L395.589 84.2502L394.721 84.2502L394.721 79.252L395.589 79.252ZM395.589 89.2485L395.589 94.2467L394.721 94.2467L394.721 89.2485L395.589 89.2485ZM395.589 99.245L395.589 104.243L394.721 104.243L394.721 99.245L395.589 99.245ZM395.589 109.242L395.589 114.24L394.721 114.24L394.721 109.242L395.589 109.242ZM395.589 119.238L395.589 124.236L394.721 124.236L394.721 119.238L395.589 119.238ZM395.589 129.235L395.589 134.233L394.721 134.233L394.721 129.235L395.589 129.235ZM395.589 139.231L395.589 144.229L394.721 144.229L394.721 139.231L395.589 139.231ZM395.589 149.228L395.589 154.226L394.721 154.226L394.721 149.228L395.589 149.228ZM395.589 159.224L395.589 164.223L394.721 164.223L394.721 159.224L395.589 159.224ZM395.589 169.221L395.589 174.219L394.721 174.219L394.721 169.221L395.589 169.221ZM395.589 179.217L395.589 184.216L394.721 184.216L394.721 179.217L395.589 179.217ZM395.589 189.214L395.589 191.713L394.721 191.713L394.721 189.214L395.589 189.214ZM395.155 42.1988C394.915 42.1988 394.721 42.0046 394.721 41.7649C394.721 41.5253 394.915 41.3311 395.155 41.3311C395.394 41.3311 395.589 41.5253 395.589 41.7649C395.589 42.0046 395.394 42.1988 395.155 42.1988ZM395.155 192.147C394.915 192.147 394.721 191.953 394.721 191.713C394.721 191.473 394.915 191.279 395.155 191.279C395.394 191.279 395.589 191.473 395.589 191.713C395.589 191.953 395.394 192.147 395.155 192.147Z"></path><path    stroke="rgba(26, 26, 26, 1)" stroke-width="0.86775803565979" stroke-linejoin="round" stroke-linecap="round"  d="M234.836 190.831L234.836 193.434L232.232 193.434"></path><path   fill="rgba(26, 26, 26, 1)"  d="M110.557 193L113.199 193L113.199 193.868L110.557 193.868L110.557 193ZM118.484 193L123.769 193L123.769 193.868L118.484 193.868L118.484 193ZM129.054 193L134.339 193L134.339 193.868L129.054 193.868L129.054 193ZM139.624 193L144.909 193L144.909 193.868L139.624 193.868L139.624 193ZM150.194 193L155.479 193L155.479 193.868L150.194 193.868L150.194 193ZM160.764 193L166.049 193L166.049 193.868L160.764 193.868L160.764 193ZM171.334 193L176.619 193L176.619 193.868L171.334 193.868L171.334 193ZM181.904 193L187.189 193L187.189 193.868L181.904 193.868L181.904 193ZM192.474 193L197.759 193L197.759 193.868L192.474 193.868L192.474 193ZM203.044 193L208.329 193L208.329 193.868L203.044 193.868L203.044 193ZM213.614 193L218.899 193L218.899 193.868L213.614 193.868L213.614 193ZM224.184 193L226.827 193L226.827 193.868L224.184 193.868L224.184 193ZM110.557 193.868C110.317 193.868 110.123 193.674 110.123 193.434C110.123 193.195 110.317 193 110.557 193C110.796 193 110.991 193.195 110.991 193.434C110.991 193.674 110.796 193.868 110.557 193.868ZM226.827 193.868C226.587 193.868 226.393 193.674 226.393 193.434C226.393 193.195 226.587 193 226.827 193C227.066 193 227.261 193.195 227.261 193.434C227.261 193.674 227.066 193.868 226.827 193.868Z"></path><path    stroke="rgba(26, 26, 26, 1)" stroke-width="0.86775803565979" stroke-linejoin="round" stroke-linecap="round"  d="M107.846 193.434L105.242 193.434L105.242 190.831"></path><path   fill="rgba(26, 26, 26, 1)"  d="M104.808 186.076L104.808 183.815L105.676 183.815L105.676 186.076L104.808 186.076ZM104.808 179.295L104.808 174.774L105.676 174.774L105.676 179.295L104.808 179.295ZM104.808 170.254L104.808 165.733L105.676 165.733L105.676 170.254L104.808 170.254ZM104.808 161.212L104.808 156.692L105.676 156.692L105.676 161.212L104.808 161.212ZM104.808 152.171L104.808 147.651L105.676 147.651L105.676 152.171L104.808 152.171ZM104.808 143.13L104.808 140.87L105.676 140.87L105.676 143.13L104.808 143.13ZM105.242 186.51C105.003 186.51 104.808 186.315 104.808 186.076C104.808 185.836 105.003 185.642 105.242 185.642C105.482 185.642 105.676 185.836 105.676 186.076C105.676 186.315 105.482 186.51 105.242 186.51ZM105.242 141.304C105.003 141.304 104.808 141.109 104.808 140.87C104.808 140.63 105.003 140.436 105.242 140.436C105.482 140.436 105.676 140.63 105.676 140.87C105.676 141.109 105.482 141.304 105.242 141.304Z"></path><path    stroke="rgba(26, 26, 26, 1)" stroke-width="0.86775803565979" stroke-linejoin="round" stroke-linecap="round"  d="M105.242 138.481L105.242 135.878L107.846 135.878"></path><path   fill="rgba(26, 26, 26, 1)"  d="M113.268 135.444L115.91 135.444L115.91 136.312L113.268 136.312L113.268 135.444ZM121.195 135.444L126.48 135.444L126.48 136.312L121.195 136.312L121.195 135.444ZM131.765 135.444L137.05 135.444L137.05 136.312L131.765 136.312L131.765 135.444ZM142.335 135.444L147.62 135.444L147.62 136.312L142.335 136.312L142.335 135.444ZM152.905 135.444L158.19 135.444L158.19 136.312L152.905 136.312L152.905 135.444ZM163.475 135.444L168.76 135.444L168.76 136.312L163.475 136.312L163.475 135.444ZM174.045 135.444L179.33 135.444L179.33 136.312L174.045 136.312L174.045 135.444ZM184.615 135.444L189.9 135.444L189.9 136.312L184.615 136.312L184.615 135.444ZM195.185 135.444L200.47 135.444L200.47 136.312L195.185 136.312L195.185 135.444ZM205.755 135.444L211.04 135.444L211.04 136.312L205.755 136.312L205.755 135.444ZM216.325 135.444L221.61 135.444L221.61 136.312L216.325 136.312L216.325 135.444ZM226.895 135.444L229.538 135.444L229.538 136.312L226.895 136.312L226.895 135.444ZM113.268 136.312C113.028 136.312 112.834 136.117 112.834 135.878C112.834 135.638 113.028 135.444 113.268 135.444C113.507 135.444 113.702 135.638 113.702 135.878C113.702 136.117 113.507 136.312 113.268 136.312ZM229.538 136.312C229.298 136.312 229.104 136.117 229.104 135.878C229.104 135.638 229.298 135.444 229.538 135.444C229.777 135.444 229.972 135.638 229.972 135.878C229.972 136.117 229.777 136.312 229.538 136.312Z"></path><path    stroke="rgba(26, 26, 26, 1)" stroke-width="0.86775803565979" stroke-linejoin="round" stroke-linecap="round"  d="M232.232 135.878L234.836 135.878L234.836 138.481"></path><path   fill="rgba(26, 26, 26, 1)"  d="M235.27 143.236L235.27 145.498L234.402 145.498L234.402 143.236L235.27 143.236ZM235.27 150.021L235.27 154.543L234.402 154.543L234.402 150.021L235.27 150.021ZM235.27 159.066L235.27 163.589L234.402 163.589L234.402 159.066L235.27 159.066ZM235.27 168.112L235.27 172.634L234.402 172.634L234.402 168.112L235.27 168.112ZM235.27 177.157L235.27 181.68L234.402 181.68L234.402 177.157L235.27 177.157ZM235.27 186.203L235.27 188.464L234.402 188.464L234.402 186.203L235.27 186.203ZM234.836 143.67C234.596 143.67 234.402 143.476 234.402 143.236C234.402 142.997 234.596 142.803 234.836 142.803C235.075 142.803 235.27 142.997 235.27 143.236C235.27 143.476 235.075 143.67 234.836 143.67ZM234.836 188.898C234.596 188.898 234.402 188.704 234.402 188.464C234.402 188.224 234.596 188.03 234.836 188.03C235.075 188.03 235.27 188.224 235.27 188.464C235.27 188.704 235.075 188.898 234.836 188.898Z"></path><path d="M227.585 190.831L112.386 190.831C110.428 190.831 108.857 189.26 108.857 187.302L108.857 143.236C108.857 141.278 110.428 139.708 112.386 139.708L227.606 139.708C229.564 139.708 231.135 141.278 231.135 143.236L231.135 187.302C231.113 189.26 229.543 190.831 227.585 190.831Z" stroke="rgba(26, 26, 26, 1)" stroke-width="0.86775803565979" stroke-linejoin="round" stroke-linecap="round"    fill="#FFFFFF" ></path><path d="M156.623 169.788L162.992 182.224L170.437 170.39L156.623 169.788Z" stroke="rgba(26, 26, 26, 1)" stroke-width="0.43377143144607544" stroke-linejoin="round" stroke-linecap="round"    fill="#1C0311" ></path><path    stroke="rgba(26, 26, 26, 1)" stroke-width="0.86775803565979" stroke-linejoin="round" stroke-linecap="round"  d="M165.144 175.274C165.919 175.683 166.672 176.113 167.403 176.544"></path><path   fill="rgba(26, 26, 26, 1)"  d="M171.965 179.079M171.965 179.079Q174.051 180.627 176.003 182.39L175.421 183.034Q173.501 181.299 171.448 179.775L171.965 179.079ZM179.708 186.066M179.708 186.066Q181.466 187.979 183.062 190.064L182.373 190.592Q180.801 188.538 179.069 186.653L179.708 186.066ZM186.05 194.342M186.05 194.342Q187.447 196.541 188.658 198.863L187.889 199.264Q186.695 196.975 185.317 194.808L186.05 194.342ZM190.873 203.586M190.873 203.586Q191.881 205.997 192.681 208.481L191.855 208.747Q191.066 206.298 190.072 203.921L190.873 203.586ZM194.068 213.511M194.068 213.511Q194.656 216.067 195.017 218.643L194.158 218.763Q193.802 216.224 193.222 213.706L194.068 213.511ZM195.51 223.837M195.51 223.837Q195.641 226.462 195.529 229.057L194.662 229.02Q194.772 226.465 194.644 223.88L195.51 223.837ZM195.056 234.256M195.056 234.256Q194.691 236.859 194.077 239.382L193.234 239.177Q193.838 236.695 194.197 234.135L195.056 234.256ZM192.585 244.406M192.585 244.406Q191.741 246.832 190.669 249.244L189.876 248.892Q190.934 246.512 191.766 244.121L192.585 244.406ZM188.37 253.92M188.37 253.92Q187.167 256.152 185.754 258.405L185.019 257.943Q186.417 255.716 187.606 253.508L188.37 253.92ZM182.867 262.719M182.867 262.719Q181.407 264.776 179.743 266.898L179.06 266.362Q180.711 264.256 182.159 262.216L182.867 262.719ZM176.455 270.925M176.455 270.925Q174.859 272.808 173.042 274.829L172.397 274.249Q174.206 272.237 175.793 270.364L176.455 270.925ZM169.523 278.656M169.523 278.656Q167.919 280.365 165.935 282.425L165.31 281.823Q167.291 279.767 168.89 278.062L169.523 278.656ZM162.32 286.153M162.32 286.153L158.717 289.858L158.095 289.253L161.698 285.548L162.32 286.153ZM155.176 293.569M155.176 293.569Q153.259 295.633 151.744 297.444L151.078 296.888Q152.608 295.059 154.54 292.978L155.176 293.569ZM148.584 301.528M148.584 301.528Q147.014 303.75 145.858 305.881L145.095 305.466Q146.276 303.291 147.876 301.027L148.584 301.528ZM143.776 310.527M143.776 310.527Q142.906 313.01 142.579 315.459L141.719 315.344Q142.058 312.807 142.957 310.24L143.776 310.527ZM142.48 320.585M142.48 320.585Q142.71 323.033 143.474 325.56L142.643 325.811Q141.854 323.201 141.616 320.666L142.48 320.585ZM145.346 330.32M145.346 330.32Q146.39 332.492 147.833 334.803L147.097 335.263Q145.629 332.911 144.564 330.696L145.346 330.32ZM150.743 339.076M150.743 339.076Q151.838 340.572 153.199 342.296L152.858 342.565L153.198 342.296L152.858 342.565L153.198 342.295L153.883 343.157L153.203 343.696L152.518 342.835L152.518 342.834L152.517 342.833Q151.147 341.097 150.043 339.589L150.743 339.076ZM157.159 347.156M157.159 347.156Q158.82 349.134 160.533 351.074L159.883 351.648Q158.162 349.7 156.494 347.714L157.159 347.156ZM164.002 354.907M164.002 354.907Q165.759 356.802 167.563 358.654L166.942 359.259Q165.131 357.401 163.366 355.497L164.002 354.907ZM171.215 362.312M171.215 362.312Q173.062 364.118 174.955 365.881L174.364 366.516Q172.463 364.746 170.608 362.933L171.215 362.312ZM178.782 369.357M178.782 369.357Q180.716 371.072 182.692 372.739L182.132 373.402Q180.148 371.728 178.206 370.006L178.782 369.357ZM186.683 376.025M186.683 376.025Q188.7 377.645 190.754 379.213L190.227 379.903Q188.164 378.328 186.14 376.702L186.683 376.025ZM192.485 241.914L192.9 242.04L192.485 241.914C192.485 241.914 192.485 241.914 192.485 241.914C192.485 241.914 192.485 241.914 192.485 241.914ZM156.44 290.969L156.753 291.269L156.44 290.969C156.44 290.969 156.44 290.969 156.44 290.969C156.44 290.969 156.44 290.969 156.44 290.969ZM142.383 318.108L141.949 318.1L142.383 318.107C142.383 318.107 142.383 318.107 142.383 318.107C142.383 318.107 142.383 318.107 142.383 318.108ZM152.517 342.833L152.858 342.565L152.518 342.834C152.518 342.834 152.518 342.834 152.518 342.833C152.518 342.833 152.517 342.833 152.517 342.833ZM171.706 179.861C171.467 179.861 171.273 179.667 171.273 179.427C171.273 179.187 171.467 178.993 171.706 178.993C171.946 178.993 172.14 179.187 172.14 179.427C172.14 179.667 171.946 179.861 171.706 179.861ZM192.362 381.405C192.123 381.405 191.928 381.211 191.928 380.971C191.928 380.732 192.123 380.538 192.362 380.538C192.602 380.538 192.796 380.732 192.796 380.971C192.796 381.211 192.602 381.405 192.362 381.405Z"></path><path    stroke="rgba(26, 26, 26, 1)" stroke-width="0.86775803565979" stroke-linejoin="round" stroke-linecap="round"  d="M194.449 382.521C195.159 383.037 195.848 383.532 196.558 384.027"></path><path d="M232.103 366.792L49.407 366.792C38.283 366.792 29.2676 375.808 29.2676 386.932L29.2676 390.805L232.103 390.805L232.103 366.792Z" stroke="rgba(26, 26, 26, 1)" stroke-width="0.86775803565979" stroke-linejoin="round" stroke-linecap="round"    fill="#FFFFFF" ></path><path d="M29.2676 390.805L232.103 390.805L232.103 414.451L29.2676 414.451L29.2676 390.805Z" stroke="rgba(26, 26, 26, 1)" stroke-width="0.43377143144607544" stroke-linejoin="round" stroke-linecap="round"    fill="#1C0311" ></path><path d="M29.2676 414.451L232.103 414.451L232.103 495.912L29.2676 495.912L29.2676 414.451Z" stroke="rgba(26, 26, 26, 1)" stroke-width="0.86775803565979" stroke-linejoin="round" stroke-linecap="round"    fill="#FFFFFF" ></path><path d="M47.1048 472.804L69.6755 472.804L69.6755 484.552L47.1048 484.552L47.1048 472.804Z" stroke="rgba(26, 26, 26, 1)" stroke-width="0.86775803565979" stroke-linejoin="round" stroke-linecap="round"    fill="#FFFFFF" ></path><path d="M75.7001 472.804L98.2709 472.804L98.2709 484.552L75.7001 484.552L75.7001 472.804Z" stroke="rgba(26, 26, 26, 1)" stroke-width="0.86775803565979" stroke-linejoin="round" stroke-linecap="round"    fill="#FFFFFF" ></path><path d="M104.317 472.804L126.888 472.804L126.888 484.552L104.317 484.552L104.317 472.804Z" stroke="rgba(26, 26, 26, 1)" stroke-width="0.86775803565979" stroke-linejoin="round" stroke-linecap="round"    fill="#FFFFFF" ></path><path d="M121.53 481.733C113.117 459.614 117.076 434.87 131.966 417.614C149.652 397.13 179.883 390.525 206.154 401.95C207.833 393.666 211.404 381.316 219.946 369.138C259.042 313.453 373.681 302.178 434.659 357.583C445.202 367.158 465.513 389.062 474.916 429.9C494.905 404.554 531.59 404.145 549.836 423.553C567.286 442.121 565.823 476.612 541.832 495.869C403.159 495.869 264.485 495.869 125.812 495.869C124.392 491.179 122.95 486.467 121.53 481.733Z" stroke="rgba(26, 26, 26, 1)" stroke-width="0.86775803565979" stroke-linejoin="round" stroke-linecap="round"    fill="#FFFFFF" ></path><path d="M221.323 320.876L377.533 320.876L377.533 344.759L221.323 344.759L221.323 320.876Z" stroke="rgba(26, 26, 26, 1)" stroke-width="0.86775803565979" stroke-linejoin="round" stroke-linecap="round"    fill="#FFFFFF" ></path><path d="M221.323 344.759L377.533 344.759L377.533 471.276L221.323 471.276L221.323 344.759Z" stroke="rgba(26, 26, 26, 1)" stroke-width="0.86775803565979" stroke-linejoin="round" stroke-linecap="round"    fill="#FFFFFF" ></path><path d="M221.323 471.254L377.533 471.254L377.533 475.278L221.323 475.278L221.323 471.254Z" stroke="rgba(26, 26, 26, 1)" stroke-width="0.86775803565979" stroke-linejoin="round" stroke-linecap="round"    fill="#FFFFFF" ></path><path d="M221.323 475.278L377.533 475.278L377.533 495.869L221.323 495.869L221.323 475.278Z" stroke="rgba(26, 26, 26, 1)" stroke-width="0.86775803565979" stroke-linejoin="round" stroke-linecap="round"    fill="#FFFFFF" ></path><path d="M278.88 359.046L321.547 359.046L321.547 367.266L278.88 367.266L278.88 359.046Z" stroke="rgba(26, 26, 26, 1)" stroke-width="0.43377143144607544" stroke-linejoin="round" stroke-linecap="round"    fill="#1C0311" ></path><path d="M221.323 320.876L207.036 339.079L207.295 355.905L221.323 345.233L221.323 320.876Z" stroke="rgba(26, 26, 26, 1)" stroke-width="0.43377143144607544" stroke-linejoin="round" stroke-linecap="round"    fill="#1C0311" ></path><path d="M221.323 345.233L207.295 355.905L209.059 473.643L221.323 471.082L221.323 345.233Z" stroke="rgba(26, 26, 26, 1)" stroke-width="0.86775803565979" stroke-linejoin="round" stroke-linecap="round"    fill="#FFFFFF" ></path><path d="M209.059 473.643L209.124 478.226L221.323 475.171L221.323 471.082L209.059 473.643Z" stroke="rgba(26, 26, 26, 1)" stroke-width="0.86775803565979" stroke-linejoin="round" stroke-linecap="round"    fill="#FFFFFF" ></path><path d="M209.124 478.226L209.382 495.891L221.323 495.891L221.323 475.17L209.124 478.226Z" stroke="rgba(26, 26, 26, 1)" stroke-width="0.43377143144607544" stroke-linejoin="round" stroke-linecap="round"    fill="#1C0311" ></path><path    stroke="rgba(26, 26, 26, 1)" stroke-width="1.3015294075012207" stroke-linejoin="round" stroke-linecap="round"  d="M0.65077 495.891L618.171 495.891"></path><path d="M545.705 65.9924C545.705 83.6152 531.419 97.9013 513.796 97.9013C496.173 97.9013 481.887 83.6152 481.887 65.9924C481.887 48.3696 496.173 34.0835 513.796 34.0835C531.419 34.0835 545.705 48.3696 545.705 65.9924Z" stroke="rgba(26, 26, 26, 1)" stroke-width="0.86775803565979" stroke-linejoin="round" stroke-linecap="round"    fill="#FFFFFF" ></path><path d="M518.487 59.4944C520.703 58.2034 522.209 55.7936 522.209 53.0395C522.209 48.9083 518.853 45.5733 514.743 45.5733C510.612 45.5733 507.277 48.9299 507.277 53.0395C507.277 55.7936 508.761 58.2034 510.999 59.4944C504.458 61.1727 499.617 67.1113 499.617 74.1686L499.617 81.4842L529.934 81.4842L529.934 74.1686C529.891 67.0897 525.028 61.1512 518.487 59.4944Z" stroke="rgba(26, 26, 26, 1)" stroke-width="0.43377143144607544" stroke-linejoin="round" stroke-linecap="round"    fill="#1C0311" ></path><path d="M324.301 149.39C324.301 149.39 350.659 208.732 363.848 208.324C377.038 207.915 329.357 225.558 329.357 225.558L324.301 184.634L324.301 149.39Z" stroke="rgba(26, 26, 26, 1)" stroke-width="0.86775803565979" stroke-linejoin="round" stroke-linecap="round"    fill="#4592FF" ></path><path     fill="#4592FF"  d="M331.725 239.63C347.195 188.722 329.186 148.202 318.815 136.26C308.444 124.319 284.945 128.82 284.945 128.82C284.945 128.82 264.204 138.615 248.045 166.22C231.886 193.826 248.045 234.1 248.045 234.1C248.045 234.1 296.696 252.368 331.725 239.63"></path><path    stroke="rgba(26, 26, 26, 1)" stroke-width="0.86775803565979" stroke-linejoin="round" stroke-linecap="round"  d="M245.852 220.975C245.852 220.975 266.056 204.558 287.615 204.558M248.047 234.1C248.047 234.1 231.888 193.821 248.047 166.216C264.206 138.61 284.947 128.82 284.947 128.82C284.947 128.82 308.443 124.323 318.814 136.265C329.185 148.207 347.194 188.722 331.724 239.63C296.695 252.368 248.047 234.1 248.047 234.1Z"></path><path     fill="#FFFFFF"  d="M379.897 287.396L407.567 308.786C407.567 308.786 416.172 288.167 430.997 263.596C444.897 240.552 468.586 201.956 430.997 197.266C393.408 192.575 327.357 231.906 327.357 231.906C327.357 231.906 297.536 266.895 298.117 267.046C298.698 267.196 351.867 275.946 351.867 275.946C351.867 275.946 379.501 258.487 385.819 255.235C380.094 271.448 379.897 287.396 379.897 287.396"></path><path    stroke="rgba(26, 26, 26, 1)" stroke-width="0.86775803565979" stroke-linejoin="round" stroke-linecap="round"  d="M398.834 233.068C380.33 252.002 379.9 287.397 379.9 287.397L407.57 308.784C407.57 308.784 416.176 288.171 431.001 263.599C444.901 240.555 468.59 201.955 431.001 197.264C393.412 192.574 327.356 231.906 327.356 231.906C327.356 231.906 297.535 266.891 298.116 267.042C298.696 267.193 351.864 275.95 351.864 275.95C351.864 275.95 379.555 258.457 385.838 255.229"></path><path d="M413.53 446.102C415.229 445.908 416.499 444.983 417.553 443.713C417.23 443.412 416.994 443.175 416.886 443.025C415.337 440.83 413.551 438.033 413.551 438.033L396.51 442.143C396.51 442.143 396.467 444.079 396.639 446.747C401.717 449.221 408.28 446.855 413.53 446.102Z" stroke="rgba(26, 26, 26, 1)" stroke-width="0.43377143144607544" stroke-linejoin="round" stroke-linecap="round"    fill="#1C0311" ></path><path d="M446.751 468.285C443.395 463.465 421.857 447.694 417.575 443.735C416.52 445.004 415.229 445.93 413.551 446.123C408.301 446.876 401.739 449.243 396.682 446.769C396.984 451.653 397.995 459.033 401.158 461.938C406.042 466.435 427.193 475.945 435.326 476.031C443.416 476.117 450.366 473.471 446.751 468.285Z" stroke="rgba(26, 26, 26, 1)" stroke-width="0.86775803565979" stroke-linejoin="round" stroke-linecap="round"    fill="#FFFFFF" ></path><path    stroke="rgba(26, 26, 26, 1)" stroke-width="0.86775803565979" stroke-linejoin="round" stroke-linecap="round"  d="M258.332 244.148C258.332 244.148 248.929 250.41 247.616 269.925C246.304 289.462 249.058 321.651 289.315 323.028C329.573 324.405 351.111 323.802 354.058 320.295C355.435 331.247 389.109 436.57 394.38 442.057C399.673 447.543 418.263 444.402 418.457 434.999C418.651 425.597 417.08 331.053 414.928 317.735C412.777 304.416 409.442 273.497 323.892 262.932M290.499 274.357C290.499 274.357 293.705 281.996 289.315 289.828"></path><path   fill="rgba(26, 26, 26, 1)"  d="M271.907 275.39M271.907 275.39Q271.89 275.506 271.872 275.734Q271.837 276.202 271.843 276.743Q271.863 278.486 272.299 280.284L271.456 280.488Q270.997 278.595 270.975 276.753Q270.965 275.823 271.049 275.261L271.907 275.39ZM274.199 284.957M274.199 284.957Q275.466 287.11 277.357 288.951L276.752 289.573Q274.777 287.651 273.451 285.397L274.199 284.957ZM281.471 292.127M281.471 292.127Q283.578 293.427 286.107 294.464L285.778 295.267Q283.183 294.203 281.016 292.865L281.471 292.127ZM290.986 296.112M290.986 296.112Q293.363 296.765 296.009 297.235L295.857 298.09Q293.172 297.612 290.756 296.949L290.986 296.112ZM301.056 297.941M301.056 297.941Q303.535 298.201 306.206 298.326L306.166 299.192Q303.47 299.067 300.966 298.804L301.056 297.941ZM311.523 298.44M311.523 298.44Q313.968 298.434 316.551 298.329L316.586 299.197Q313.987 299.302 311.525 299.307L311.523 298.44ZM321.947 298.017M321.951 298.017L327.213 297.713L327.263 298.579L322.001 298.884L321.951 298.017ZM332.395 297.513M332.395 297.513Q335.085 297.439 337.603 297.433L337.605 298.3Q335.098 298.306 332.419 298.381L332.395 297.513ZM342.86 297.501M342.86 297.501Q345.543 297.579 348.023 297.749L347.964 298.615Q345.501 298.446 342.835 298.368L342.86 297.501ZM353.212 298.229M353.212 298.229Q355.948 298.554 358.422 299.015L358.263 299.868Q355.817 299.413 353.109 299.091L353.212 298.229ZM363.534 300.187M363.534 300.187Q366.26 300.944 368.636 301.92L368.306 302.722Q365.978 301.766 363.302 301.024L363.534 300.187ZM373.272 304.225M373.272 304.225Q375.604 305.62 377.54 307.335L376.965 307.985Q375.089 306.323 372.826 304.969L373.272 304.225ZM381.088 311.167M381.088 311.167Q382.635 313.209 383.851 315.626L383.076 316.016Q381.895 313.67 380.396 311.691L381.088 311.167ZM385.837 320.455M385.837 320.455Q386.626 322.83 387.211 325.555L386.363 325.738Q385.788 323.059 385.013 320.728L385.837 320.455ZM388.089 330.645M388.089 330.645Q388.423 333.108 388.642 335.887L387.777 335.955Q387.56 333.2 387.229 330.761L388.089 330.645ZM388.993 341.123M388.993 341.123Q389.17 343.569 389.424 346.343L388.56 346.422Q388.305 343.64 388.128 341.186L388.993 341.123ZM389.94 351.574M389.94 351.572L390.49 356.559L389.627 356.654L389.077 351.667L389.94 351.572ZM391.107 361.729M391.106 361.727L391.784 367.063L390.923 367.173L390.245 361.836L391.106 361.727ZM392.469 372.21M392.469 372.209L393.189 377.401L392.329 377.52L391.61 372.328L392.469 372.209ZM393.936 382.618M393.936 382.617L394.704 387.827L393.846 387.954L393.078 382.744L393.936 382.617ZM395.484 392.988M395.484 392.988L396.268 398.066L395.411 398.199L394.626 393.12L395.484 392.988ZM397.085 403.255M397.085 403.255L397.931 408.527L397.074 408.664L396.228 403.392L397.085 403.255ZM398.75 413.551M398.75 413.55L399.591 418.63L398.734 418.771L397.894 413.692L398.75 413.55ZM400.451 423.75M400.451 423.749L401.324 428.868L400.469 429.014L399.596 423.895L400.451 423.749ZM402.223 434.06M402.223 434.059L403.139 439.25L402.284 439.401L401.368 434.21L402.223 434.059ZM388.81 338.344L388.377 338.369L388.81 338.344C388.81 338.344 388.81 338.344 388.81 338.344C388.81 338.344 388.81 338.344 388.81 338.344ZM271.478 275.76C271.239 275.76 271.044 275.565 271.044 275.326C271.044 275.086 271.239 274.892 271.478 274.892C271.718 274.892 271.912 275.086 271.912 275.326C271.912 275.565 271.718 275.76 271.478 275.76ZM402.75 439.973C402.51 439.973 402.316 439.779 402.316 439.539C402.316 439.3 402.51 439.105 402.75 439.105C402.99 439.105 403.184 439.3 403.184 439.539C403.184 439.779 402.99 439.973 402.75 439.973Z"></path><path d="M254.459 251.206C254.459 251.206 264.98 264.051 280.128 265.751C295.275 267.451 312.08 266.59 329.357 252.82C337.297 245.655 334.263 243.632 334.263 243.632L256.331 243.632L253.577 249.571L254.459 251.206ZM387.602 220.523C387.602 220.523 425.192 192.036 430.85 188.378C436.509 184.698 432.981 181.256 432.981 181.256C432.981 181.256 418.565 166.044 412.798 161.138C407.032 156.254 403.546 159.826 403.546 159.826L357.436 194.768C357.436 194.768 355.005 196.877 358.103 200.384C361.202 203.891 381.104 222.46 381.104 222.46C381.104 222.46 382.912 224.87 387.602 220.523Z" stroke="rgba(26, 26, 26, 1)" stroke-width="0.43377143144607544" stroke-linejoin="round" stroke-linecap="round"  fill-rule="evenodd"  fill="#1C0311" ></path><path d="M388.657 216.435C388.657 216.435 421.06 191.885 425.923 188.722C430.786 185.559 427.752 182.59 427.752 182.59C427.752 182.59 415.337 169.465 410.345 165.248C405.375 161.03 402.363 164.107 402.363 164.107L362.622 194.23C362.622 194.23 360.535 196.038 363.203 199.071C365.871 202.105 383.041 218.092 383.041 218.092C383.041 218.092 384.612 220.179 388.657 216.435Z" stroke="rgba(26, 26, 26, 1)" stroke-width="0.86775803565979" stroke-linejoin="round" stroke-linecap="round"    fill="#FFFFFF" ></path><path   fill-rule="evenodd"  fill="#FFFFFF"  d="M286.067 209.74C261.108 216.496 248.047 234.12 248.047 234.12C249.316 237.67 258.306 265.304 293.357 263.54C328.407 261.775 355.219 229.429 362.707 221.64C370.194 213.872 370.927 206.082 383.407 205.2C395.886 204.317 396.768 196.106 396.467 193.61C396.166 191.114 393.537 186.265 402.337 184.2C411.159 182.156 416.002 177.597 401.027 178.48C386.051 179.362 371.078 195.496 345.237 214C307.669 238.658 289.317 208.52 289.317 208.52L286.067 209.74M439.307 184.74C444.793 179.21 441.303 172.61 436.957 166.93C432.61 161.249 427.167 160.66 427.167 160.66C427.167 160.66 414.452 164.583 416.217 170.5C417.981 176.417 423.903 181.173 429.627 179.99C432.682 178.182 433.922 181.961 434.267 182.65C434.267 182.65 435.172 185.126 432.397 187.17C432.397 187.17 433.842 190.269 439.307 184.74"></path><path    stroke="rgba(26, 26, 26, 1)" stroke-width="0.86775803565979" stroke-linejoin="round" stroke-linecap="round"  d="M287.702 188.937L289.315 208.517M289.315 208.517C289.315 208.517 307.669 238.662 345.237 214.004C371.078 195.5 386.053 179.362 401.029 178.48C416.004 177.598 411.163 182.16 402.341 184.204C393.541 186.269 396.166 191.11 396.467 193.606C396.768 196.102 395.886 204.321 383.407 205.204C370.927 206.086 370.196 213.875 362.708 221.642C355.22 229.431 328.411 261.77 293.36 263.535C258.31 265.299 249.316 237.672 248.047 234.122C248.047 234.122 261.107 216.5 286.066 209.744L289.315 208.517ZM310.724 120.967C326.41 130.628 331.746 120.515 335.769 112.877C339.793 105.238 337.77 93.4473 337.77 93.4473C336.458 88.1542 330.433 81.269 315.307 84.9268C300.181 88.6061 297.47 112.812 297.47 112.812L285.141 130.649C285.141 130.649 284.861 136.545 294.264 137.621C303.667 138.696 308.099 136.093 309.519 133.403C312.553 127.034 314.231 123.312 314.231 123.312M432.4 187.173C432.4 187.173 433.841 190.271 439.306 184.742C444.793 179.212 441.307 172.606 436.961 166.926C432.615 161.246 427.171 160.665 427.171 160.665C427.171 160.665 414.455 164.581 416.219 170.498C417.984 176.415 423.901 181.17 429.624 179.986C432.679 178.179 433.927 181.966 434.272 182.654C434.272 182.654 435.175 185.129 432.4 187.173Z"></path><path d="M310.81 121.203L313.543 124.302L313.93 123.161L310.81 121.203Z" stroke="rgba(26, 26, 26, 1)" stroke-width="0.43377143144607544" stroke-linejoin="round" stroke-linecap="round"    fill="#1C0311" ></path><path d="M309.196 107.842C309.196 107.842 308.25 114.964 303.387 115.028C298.524 115.093 290.757 107.476 291.574 100.419C292.392 93.3612 298.395 80.0856 310.229 74.728C322.042 69.3704 335.92 76.7936 341.062 78.687C346.205 80.5805 350.831 79.5046 352.509 78.4718C354.187 77.439 353.456 82.8827 350.895 85.1419C348.335 87.4227 343.838 94.1788 328.583 90.2844C326.087 89.5528 320.364 93.0815 320.364 94.8459C320.364 96.6102 318.083 97.0405 318.083 97.0405C318.083 97.0405 314.038 88.3049 310.294 91.8981C306.55 95.4913 311.972 102.699 313.306 104.076C314.64 105.453 309.196 107.842 309.196 107.842Z" stroke="rgba(26, 26, 26, 1)" stroke-width="0.43377143144607544" stroke-linejoin="round" stroke-linecap="round"    fill="#1C0311" ></path><path d="M102.467 32.4052L108.147 32.4052L108.147 38.0856L102.467 38.0856L102.467 32.4052Z" stroke="rgba(26, 26, 26, 1)" stroke-width="0.43377143144607544" stroke-linejoin="round" stroke-linecap="round"    fill="#1C0311" ></path><path d="M102.467 120.235L108.147 120.235L108.147 125.916L102.467 125.916L102.467 120.235Z" stroke="rgba(26, 26, 26, 1)" stroke-width="0.43377143144607544" stroke-linejoin="round" stroke-linecap="round"    fill="#1C0311" ></path><path d="M231.522 32.4052L237.202 32.4052L237.202 38.0856L231.522 38.0856L231.522 32.4052Z" stroke="rgba(26, 26, 26, 1)" stroke-width="0.43377143144607544" stroke-linejoin="round" stroke-linecap="round"    fill="#1C0311" ></path><path d="M231.522 120.235L237.202 120.235L237.202 125.916L231.522 125.916L231.522 120.235Z" stroke="rgba(26, 26, 26, 1)" stroke-width="0.43377143144607544" stroke-linejoin="round" stroke-linecap="round"    fill="#1C0311" ></path><path d="M105.242 272.615C105.242 291.069 90.2817 306.03 71.8271 306.03C53.3725 306.03 38.4121 291.069 38.4121 272.615C38.4121 254.16 53.3725 239.2 71.8271 239.2C90.2817 239.2 105.242 254.16 105.242 272.615Z" stroke="rgba(26, 26, 26, 1)" stroke-width="0.86775803565979" stroke-linejoin="round" stroke-linecap="round"    fill="#FFFFFF" ></path><path d="M101.584 272.615C101.584 289.049 88.2616 302.372 71.8271 302.372C55.3927 302.372 42.0699 289.049 42.0699 272.615C42.0699 256.18 55.3927 242.858 71.8271 242.858C88.2616 242.858 101.584 256.18 101.584 272.615Z" stroke="rgba(26, 26, 26, 1)" stroke-width="0.86775803565979" stroke-linejoin="round" stroke-linecap="round"    fill="#FFFFFF" ></path><path d="M64.9204 255.337L64.9204 289.871L83.6827 272.615L64.9204 255.337Z" stroke="rgba(26, 26, 26, 1)" stroke-width="0.43377143144607544" stroke-linejoin="round" stroke-linecap="round"    fill="#1C0311" ></path><path d="M553.688 202.148C553.688 215.291 543.033 225.946 529.891 225.946C516.748 225.946 506.093 215.291 506.093 202.148C506.093 189.006 516.748 178.351 529.891 178.351C543.033 178.351 553.688 189.006 553.688 202.148Z" stroke="rgba(26, 26, 26, 1)" stroke-width="0.86775803565979" stroke-linejoin="round" stroke-linecap="round"    fill="#FFFFFF" ></path><path d="M551.106 202.149C551.106 213.865 541.607 223.364 529.891 223.364C518.174 223.364 508.675 213.865 508.675 202.149C508.675 190.432 518.174 180.933 529.891 180.933C541.607 180.933 551.106 190.432 551.106 202.149Z" stroke="rgba(26, 26, 26, 1)" stroke-width="0.86775803565979" stroke-linejoin="round" stroke-linecap="round"    fill="#FFFFFF" ></path><path d="M524.49 213.789L525.458 206.516L522.424 206.516L522.424 204.322L525.802 204.322L526.513 198.943L523.328 198.943L523.328 196.748L526.857 196.748L527.825 189.669L529.977 189.669L529.051 196.748L532.903 196.748L533.871 189.669L536.066 189.669L535.141 196.748L538.174 196.748L538.174 198.943L534.796 198.943L534.129 204.322L537.314 204.322L537.314 206.516L533.785 206.516L532.817 213.789L530.601 213.789L531.569 206.516L527.717 206.516L526.749 213.789L524.49 213.789ZM531.87 204.322L532.58 198.943L528.729 198.943L528.019 204.322L531.87 204.322Z" fill-rule="evenodd"  fill="#000000" ></path><path    stroke="rgba(26, 26, 26, 1)" stroke-width="1.3015294075012207" stroke-linejoin="round" stroke-linecap="round"  d="M421.426 449.308L416.693 455.913L426.375 453.439L425.127 460.754L432.141 458.28L430.915 462.196"></path><path d="M23.286 77.6112L60.8753 77.6112L60.8753 115.2L23.286 115.2L23.286 77.6112Z" stroke="rgba(26, 26, 26, 1)" stroke-width="0.86775803565979" stroke-linejoin="round" stroke-linecap="round"    fill="#FFFFFF" ></path><path    stroke="rgba(26, 26, 26, 1)" stroke-width="0.86775803565979" stroke-linejoin="round" stroke-linecap="round"  d="M42.0699 84.0232L42.0699 108.767"></path><path    stroke="rgba(26, 26, 26, 1)" stroke-width="0.86775803565979" stroke-linejoin="round" stroke-linecap="round"  d="M29.741 96.3952L54.101 96.3952"></path><path d="M518.272 121.204C518.272 123.901 516.085 126.088 513.388 126.088C510.69 126.088 508.503 123.901 508.503 121.204C508.503 118.506 510.69 116.319 513.388 116.319C516.085 116.319 518.272 118.506 518.272 121.204Z" stroke="rgba(26, 26, 26, 1)" stroke-width="0.86775803565979" stroke-linejoin="round" stroke-linecap="round"    fill="#FFFFFF" ></path><path d="M466.955 292.711L523.651 292.711L523.651 329.483L466.955 329.483L466.955 292.711Z" stroke="rgba(26, 26, 26, 1)" stroke-width="0.86775803565979" stroke-linejoin="round" stroke-linecap="round"    fill="#FFFFFF" ></path><path d="M495.292 310.57L466.955 292.711L523.651 292.711L495.292 310.57Z" stroke="rgba(26, 26, 26, 1)" stroke-width="0.86775803565979" stroke-linejoin="round" stroke-linecap="round"    fill="#FFFFFF" ></path><path    stroke="rgba(26, 26, 26, 1)" stroke-width="0.86775803565979" stroke-linejoin="round" stroke-linecap="round"  d="M466.955 329.483L488.063 306.03"></path><path    stroke="rgba(26, 26, 26, 1)" stroke-width="0.86775803565979" stroke-linejoin="round" stroke-linecap="round"  d="M503.318 306.03L523.651 329.483"></path></svg>